<?xml version="1.0" encoding="UTF-8" standalone="no"?><!DOCTYPE svg PUBLIC "-//W3C//DTD SVG 1.1//EN" "http://www.w3.org/Graphics/SVG/1.1/DTD/svg11.dtd"><svg width="100%" height="100%" viewBox="0 0 2084 2084" version="1.1" xmlns="http://www.w3.org/2000/svg" xmlns:xlink="http://www.w3.org/1999/xlink" xml:space="preserve" xmlns:serif="http://www.serif.com/" style="fill-rule:evenodd;clip-rule:evenodd;stroke-linejoin:round;stroke-miterlimit:2;"><g><path d="M944.922,1137.33l-0,82.184l82.096,-0l0,-82.075l116.862,-0c21.051,-0 39.388,-8.55 53.234,-22.309c13.758,-13.737 22.287,-32.183 22.287,-53.212l0,-123.546c0,-21.05 -8.529,-39.388 -22.287,-53.233c-13.759,-13.759 -32.183,-22.288 -53.234,-22.288l-123.437,0c-21.029,0 -39.367,8.529 -53.234,22.288c-13.845,13.758 -22.287,32.183 -22.287,53.233l-0,116.862l-164.171,0l-0,82.096l164.171,0Zm-82.075,82.184l0,-281.142c0,-43.338 17.709,-82.704 45.942,-111.675c28.95,-28.234 68.316,-45.942 111.654,-45.942l123.437,-0c43.338,-0 82.704,17.708 111.676,45.942c28.32,28.971 46.028,68.337 46.028,111.675l0,123.438c0,43.337 -17.708,82.704 -45.92,111.653c-28.863,28.234 -68.338,45.942 -111.675,45.942l-116.971,0l0,82.183l-82.096,0l-0,-82.074l-82.075,-0Zm244.38,-274.588l-49.914,-0c-7.899,-0 -15.711,3.342 -21.028,9.18c-5.946,5.208 -9.18,13.107 -9.18,21.028l0,80.1l80.122,0c7.899,0 15.711,-3.32 21.028,-9.158c5.946,-5.208 9.18,-13.129 9.18,-21.05l-0,-49.892c-0,-7.921 -3.342,-15.733 -9.18,-21.028c-5.317,-5.838 -13.216,-9.18 -21.028,-9.18Z" style="fill:#fff;fill-rule:nonzero;"/></g></svg>