<?xml version="1.0" encoding="UTF-8" standalone="no"?><!DOCTYPE svg PUBLIC "-//W3C//DTD SVG 1.1//EN" "http://www.w3.org/Graphics/SVG/1.1/DTD/svg11.dtd"><svg width="100%" height="100%" viewBox="0 0 192 192" version="1.1" xmlns="http://www.w3.org/2000/svg" xmlns:xlink="http://www.w3.org/1999/xlink" xml:space="preserve" xmlns:serif="http://www.serif.com/" style="fill-rule:evenodd;clip-rule:evenodd;stroke-linejoin:round;stroke-miterlimit:2;"><path d="M86.889,109.667l-0,-27.334l23.671,13.667l-23.671,13.667Zm52.764,-35.598c-1.048,-3.919 -4.135,-7.007 -8.055,-8.055c-7.106,-1.904 -35.598,-1.904 -35.598,-1.904c-0,-0 -28.492,-0 -35.598,1.904c-3.92,1.048 -7.007,4.136 -8.055,8.055c-1.904,7.106 -1.904,21.931 -1.904,21.931c0,-0 0,14.825 1.904,21.931c1.048,3.919 4.135,7.007 8.055,8.055c7.106,1.904 35.598,1.904 35.598,1.904c-0,-0 28.492,-0 35.598,-1.904c3.92,-1.048 7.007,-4.136 8.055,-8.055c1.904,-7.106 1.904,-21.931 1.904,-21.931c-0,-0 -0,-14.825 -1.904,-21.931" style="fill:#fff;fill-rule:nonzero;"/></svg>